<svg xmlns="http://www.w3.org/2000/svg" width="410" height="404" viewBox="0 0 410 404" fill="none">
  <path d="M399.641 59.5246L215.643 388.545C211.844 395.338 201.556 395.312 197.795 388.498L10.5817 59.5563C6.38087 52.1896 12.6802 43.2665 21.0281 44.7586L205.223 77.6824C206.398 77.8924 207.601 77.8904 208.776 77.6763L389.119 44.8058C397.439 43.2894 403.768 52.1434 399.641 59.5246Z" fill="url(#paint0_linear)"/>
  <path d="M292.965 1.5744L156.801 28.2552C154.563 28.6937 152.884 30.5903 152.771 32.8729L146.337 164.739C146.202 167.468 148.693 169.59 151.318 168.909L188.42 159.36C191.17 158.648 193.801 160.95 193.26 163.752L182.678 219.22C182.122 222.091 184.829 224.464 187.604 223.61L211.652 216.308C214.431 215.453 217.14 217.834 216.577 220.707L201.398 298.894C200.643 302.741 205.716 304.787 207.757 301.418L209.518 298.463L322.992 59.0426C324.431 56.0757 321.791 52.7466 318.602 53.3743L280.621 60.6719C277.824 61.2267 275.514 58.5794 276.4 55.8592L298.046 0.878598C298.942 -1.87325 296.59 -4.43219 293.769 -3.86464Z" fill="url(#paint1_linear)"/>
  <defs>
    <linearGradient id="paint0_linear" x1="6.00017" y1="32.9999" x2="235" y2="344" gradientUnits="userSpaceOnUse">
      <stop stop-color="#41D1FF"/>
      <stop offset="1" stop-color="#BD34FE"/>
    </linearGradient>
    <linearGradient id="paint1_linear" x1="194.651" y1="8.81818" x2="236.076" y2="292.989" gradientUnits="userSpaceOnUse">
      <stop stop-color="#FFEA83"/>
      <stop offset="0.0833333" stop-color="#FFDD35"/>
      <stop offset="1" stop-color="#FFA800"/>
    </linearGradient>
  </defs>
</svg>
